<svg xmlns="http://www.w3.org/2000/svg" version="1.1" x="0" y="0" viewBox="271.2 179.9 249.8 249.8" enable-background="new 271.2 179.9 249.8 249.8" xml:space="preserve"><path fill="#FFFFFF" d="M271.2 304.8c0-68.9 55.9-124.9 124.9-124.9 68.9 0 124.9 55.9 124.9 124.9 0 68.9-55.9 124.9-124.9 124.9C327 429.6 271.2 373.7 271.2 304.8zM395.9 387.7c45.8 0 82.9-37.1 82.9-82.9s-37.1-82.9-82.9-82.9S313 259 313 304.8C313 350.5 350.2 387.7 395.9 387.7zM395.9 347.1c23.7 0 43.1-19.2 43.1-43.1 0-23.7-19.2-43.1-43.1-43.1 -23.7 0-43.1 19.2-43.1 43.1C353 327.8 372.2 347.1 395.9 347.1z"/></svg>