<?xml version="1.0" encoding="utf-8"?>
<!-- Generator: Adobe Illustrator 18.0.0, SVG Export Plug-In . SVG Version: 6.00 Build 0)  -->
<!DOCTYPE svg PUBLIC "-//W3C//DTD SVG 1.1//EN" "http://www.w3.org/Graphics/SVG/1.1/DTD/svg11.dtd">
<svg version="1.1" id="Layer_1" xmlns="http://www.w3.org/2000/svg" xmlns:xlink="http://www.w3.org/1999/xlink" x="0px" y="0px"
	 viewBox="0 0 577.1 241.9" enable-background="new 0 0 577.1 241.9" xml:space="preserve">
<path fill="#FFFFFF" d="M197.6,120.1c0-50.2,40.7-91,91-91c50.2,0,91,40.7,91,91c0,50.2-40.7,91-91,91
	C238.3,211,197.6,170.3,197.6,120.1z M288.5,180.5c33.4,0,60.4-27,60.4-60.4c0-33.4-27-60.4-60.4-60.4c-33.4,0-60.4,27-60.4,60.4
	C228.1,153.4,255.2,180.5,288.5,180.5z M288.5,150.9c17.3,0,31.4-14,31.4-31.4c0-17.3-14-31.4-31.4-31.4c-17.3,0-31.4,14-31.4,31.4
	C257.2,136.8,271.2,150.9,288.5,150.9z"/>
<path fill-rule="evenodd" clip-rule="evenodd" fill="#FFFFFF" d="M371.4,222.7c6.5,0,12-5,12-11.9c0-6.8-5.5-11.9-12-11.9
	c-6.5,0-12.1,5-12.1,11.9C359.3,217.7,364.9,222.7,371.4,222.7z M361.7,210.8c0-5.6,4.3-9.9,9.7-9.9c5.4,0,9.6,4.3,9.6,9.9
	c0,5.7-4.2,10-9.6,10C366,220.7,361.7,216.5,361.7,210.8z M368.9,211.7h2.4l3.6,6h2.3l-3.9-6c2-0.3,3.6-1.3,3.6-3.8
	c0-2.7-1.6-3.9-4.8-3.9h-5.2v13.7h2.1V211.7z M368.9,210v-4.3h2.8c1.5,0,3,0.3,3,2c0,2.1-1.6,2.2-3.3,2.2H368.9z"/>
</svg>
